<mxfile host="app.diagrams.net" modified="2024-09-29T19:20:01.325Z" agent="Mozilla/5.0 (Windows NT 10.0; Win64; x64) AppleWebKit/537.36 (KHTML, like Gecko) Chrome/129.0.0.0 Safari/537.36" etag="tw88HeDELgKgEhzbAlqH" version="24.6.4" type="device">
  <diagram name="Page-1" id="CKt8P08zi7D1YmqdvL6h">
    <mxGraphModel dx="880" dy="460" grid="1" gridSize="10" guides="1" tooltips="1" connect="1" arrows="1" fold="1" page="1" pageScale="1" pageWidth="827" pageHeight="1169" math="0" shadow="0">
      <root>
        <mxCell id="0" />
        <mxCell id="1" parent="0" />
        <mxCell id="2VEAsLKK-HezLPbCDKwS-1" value="2" style="ellipse;whiteSpace=wrap;html=1;" vertex="1" parent="1">
          <mxGeometry x="330" y="50" width="60" height="50" as="geometry" />
        </mxCell>
        <mxCell id="2VEAsLKK-HezLPbCDKwS-2" value="" style="ellipse;whiteSpace=wrap;html=1;" vertex="1" parent="1">
          <mxGeometry x="310" y="190" width="60" height="50" as="geometry" />
        </mxCell>
        <mxCell id="2VEAsLKK-HezLPbCDKwS-3" value="" style="ellipse;whiteSpace=wrap;html=1;" vertex="1" parent="1">
          <mxGeometry x="190" y="190" width="60" height="50" as="geometry" />
        </mxCell>
        <mxCell id="2VEAsLKK-HezLPbCDKwS-4" value="4" style="ellipse;whiteSpace=wrap;html=1;" vertex="1" parent="1">
          <mxGeometry x="414" y="120" width="60" height="50" as="geometry" />
        </mxCell>
        <mxCell id="2VEAsLKK-HezLPbCDKwS-5" value="1" style="ellipse;whiteSpace=wrap;html=1;" vertex="1" parent="1">
          <mxGeometry x="260" y="110" width="60" height="50" as="geometry" />
        </mxCell>
        <mxCell id="2VEAsLKK-HezLPbCDKwS-6" value="" style="endArrow=none;html=1;rounded=0;exitX=1;exitY=0;exitDx=0;exitDy=0;" edge="1" parent="1" source="2VEAsLKK-HezLPbCDKwS-5" target="2VEAsLKK-HezLPbCDKwS-1">
          <mxGeometry width="50" height="50" relative="1" as="geometry">
            <mxPoint x="390" y="270" as="sourcePoint" />
            <mxPoint x="440" y="220" as="targetPoint" />
            <Array as="points">
              <mxPoint x="320" y="110" />
            </Array>
          </mxGeometry>
        </mxCell>
        <mxCell id="2VEAsLKK-HezLPbCDKwS-7" value="" style="endArrow=none;html=1;rounded=0;exitX=1;exitY=0;exitDx=0;exitDy=0;" edge="1" parent="1" source="2VEAsLKK-HezLPbCDKwS-3">
          <mxGeometry width="50" height="50" relative="1" as="geometry">
            <mxPoint x="230" y="200" as="sourcePoint" />
            <mxPoint x="283" y="160" as="targetPoint" />
            <Array as="points" />
          </mxGeometry>
        </mxCell>
        <mxCell id="2VEAsLKK-HezLPbCDKwS-8" value="" style="endArrow=none;html=1;rounded=0;" edge="1" parent="1" source="2VEAsLKK-HezLPbCDKwS-5" target="2VEAsLKK-HezLPbCDKwS-2">
          <mxGeometry width="50" height="50" relative="1" as="geometry">
            <mxPoint x="331" y="137" as="sourcePoint" />
            <mxPoint x="359" y="113" as="targetPoint" />
            <Array as="points" />
          </mxGeometry>
        </mxCell>
        <mxCell id="2VEAsLKK-HezLPbCDKwS-9" value="" style="endArrow=none;html=1;rounded=0;entryX=1;entryY=1;entryDx=0;entryDy=0;" edge="1" parent="1" source="2VEAsLKK-HezLPbCDKwS-4" target="2VEAsLKK-HezLPbCDKwS-1">
          <mxGeometry width="50" height="50" relative="1" as="geometry">
            <mxPoint x="410" y="130" as="sourcePoint" />
            <mxPoint x="369" y="123" as="targetPoint" />
            <Array as="points" />
          </mxGeometry>
        </mxCell>
        <mxCell id="2VEAsLKK-HezLPbCDKwS-11" value="5" style="ellipse;whiteSpace=wrap;html=1;" vertex="1" parent="1">
          <mxGeometry x="500" y="200" width="60" height="50" as="geometry" />
        </mxCell>
        <mxCell id="2VEAsLKK-HezLPbCDKwS-12" value="" style="endArrow=none;html=1;rounded=0;" edge="1" parent="1" target="2VEAsLKK-HezLPbCDKwS-4">
          <mxGeometry width="50" height="50" relative="1" as="geometry">
            <mxPoint x="520" y="210" as="sourcePoint" />
            <mxPoint x="391" y="103" as="targetPoint" />
            <Array as="points" />
          </mxGeometry>
        </mxCell>
        <mxCell id="2VEAsLKK-HezLPbCDKwS-13" value="3" style="ellipse;whiteSpace=wrap;html=1;" vertex="1" parent="1">
          <mxGeometry x="384" y="210" width="60" height="50" as="geometry" />
        </mxCell>
        <mxCell id="2VEAsLKK-HezLPbCDKwS-14" value="" style="endArrow=none;html=1;rounded=0;" edge="1" parent="1" source="2VEAsLKK-HezLPbCDKwS-13" target="2VEAsLKK-HezLPbCDKwS-4">
          <mxGeometry width="50" height="50" relative="1" as="geometry">
            <mxPoint x="530" y="220" as="sourcePoint" />
            <mxPoint x="475" y="173" as="targetPoint" />
            <Array as="points" />
          </mxGeometry>
        </mxCell>
      </root>
    </mxGraphModel>
  </diagram>
</mxfile>
